<svg width="760" height="760" viewBox="0 0 760 760" fill="none" xmlns="http://www.w3.org/2000/svg">
<path d="M380 760C589.868 760 760 589.868 760 380C760 170.132 589.868 0 380 0C170.132 0 0 170.132 0 380C0 589.868 170.132 760 380 760Z" fill="black"/>
<g clip-path="url(#clip0_46_16)">
<path d="M507.324 380.5C536.227 357.496 554.899 322.095 554.899 282.362C554.862 213.239 498.623 157 429.5 157H233.261C218.211 157 206 169.211 206 184.261C206 199.31 218.211 211.521 233.261 211.521H429.5C468.561 211.521 500.378 243.3 500.378 282.399C500.378 321.497 468.599 353.277 429.5 353.277H260.521V309.622H429.5C444.549 309.622 456.761 297.411 456.761 282.362C456.761 267.312 444.549 255.101 429.5 255.101H233.261C218.211 255.101 206 267.312 206 282.362V478.601C206 493.65 218.211 505.862 233.261 505.862H429.5C444.549 505.862 456.761 493.65 456.761 478.601C456.761 463.552 444.549 451.34 429.5 451.34H260.521V407.761H429.5C468.561 407.761 500.378 439.54 500.378 478.638C500.378 517.737 468.561 549.479 429.5 549.479H233.261C218.211 549.479 206 561.69 206 576.739C206 591.789 218.211 604 233.261 604H429.5C498.623 604 554.862 547.761 554.862 478.638C554.862 438.905 536.227 403.504 507.324 380.5Z" fill="white"/>
</g>
<defs>
<clipPath id="clip0_46_16">
<rect width="348.862" height="447" fill="white" transform="translate(206 157)"/>
</clipPath>
</defs>
</svg>
