<svg width="3235" height="1000" viewBox="0 0 3235 1000" fill="none" xmlns="http://www.w3.org/2000/svg">
<mask id="mask0_48_50" style="mask-type:luminance" maskUnits="userSpaceOnUse" x="0" y="21" width="748" height="958">
<path d="M747.607 21.043H0V978.959H747.607V21.043Z" fill="white"/>
</mask>
<g mask="url(#mask0_48_50)">
<path d="M645.733 500.001C707.673 450.704 747.687 374.841 747.687 289.692C747.607 141.563 627.086 21.043 478.958 21.043H58.4192C26.1685 21.043 0 47.2115 0 79.4622C0 111.713 26.1685 137.881 58.4192 137.881H478.958C562.665 137.881 630.848 205.985 630.848 289.772C630.848 373.56 562.746 441.662 478.958 441.662H116.838V348.111H478.958C511.208 348.111 537.377 321.943 537.377 289.692C537.377 257.442 511.208 231.271 478.958 231.271H58.4192C26.1685 231.271 0 257.442 0 289.692V710.229C0 742.48 26.1685 768.65 58.4192 768.65H478.958C511.208 768.65 537.377 742.48 537.377 710.229C537.377 677.979 511.208 651.81 478.958 651.81H116.838V558.42H478.958C562.665 558.42 630.848 626.522 630.848 710.31C630.848 794.097 562.665 862.121 478.958 862.121H58.4192C26.1685 862.121 0 888.289 0 920.54C0 952.79 26.1685 978.959 58.4192 978.959H478.958C627.086 978.959 747.607 858.44 747.607 710.31C747.607 625.161 707.673 549.297 645.733 500.001Z" fill="white"/>
</g>
<path d="M947.432 291.218V381.796C947.432 383.784 948.426 385.026 950.414 385.523C960.105 387.014 970.293 387.759 980.979 387.759C1004.34 387.759 1021.48 383.411 1032.42 374.713C1043.35 366.016 1048.82 352.721 1048.82 334.83C1048.82 318.677 1042.23 306.874 1029.06 299.419C1015.89 291.715 993.652 287.864 962.341 287.864H950.786C948.55 287.864 947.432 288.982 947.432 291.218ZM947.432 179.767V252.453C947.432 254.689 948.55 255.808 950.786 255.808H962.341C989.676 255.808 1009.31 252.329 1021.24 245.371C1033.41 238.413 1039.5 227.852 1039.5 213.687C1039.5 200.02 1034.65 189.956 1024.96 183.495C1015.27 177.034 999.368 173.804 977.251 173.804C967.808 173.804 958.863 174.549 950.414 176.04C948.426 176.537 947.432 177.78 947.432 179.767ZM927.676 417.952C921.464 417.206 916.37 414.597 912.394 410.124C908.418 405.403 906.43 399.936 906.43 393.723V167.84C906.43 161.627 908.418 156.285 912.394 151.812C916.37 147.09 921.464 144.357 927.676 143.611C942.586 141.872 959.111 141.002 977.251 141.002C1044.35 141.002 1077.89 163.367 1077.89 208.096C1077.89 223.006 1072.8 236.176 1062.61 247.607C1052.42 258.79 1039 265.996 1022.35 269.226C1022.11 269.226 1021.98 269.351 1021.98 269.599C1021.98 269.848 1022.11 269.972 1022.35 269.972C1043.23 273.202 1059.5 280.906 1071.18 293.082C1083.11 305.258 1089.08 320.417 1089.08 338.557C1089.08 393.226 1053.04 420.561 980.979 420.561C961.347 420.561 943.58 419.691 927.676 417.952ZM1219.3 179.767V269.599C1219.3 271.836 1220.42 272.954 1222.66 272.954H1241.67C1294.35 272.954 1320.69 255.062 1320.69 219.279C1320.69 204.12 1314.97 192.814 1303.54 185.359C1292.36 177.655 1274.22 173.804 1249.12 173.804C1239.68 173.804 1230.73 174.549 1222.28 176.04C1220.3 176.537 1219.3 177.78 1219.3 179.767ZM1213.34 410.87C1209.36 414.846 1204.52 416.834 1198.8 416.834C1193.09 416.834 1188.24 414.846 1184.26 410.87C1180.29 406.894 1178.3 402.048 1178.3 396.333V167.84C1178.3 161.627 1180.29 156.285 1184.26 151.812C1188.24 147.09 1193.33 144.481 1199.55 143.984C1217.93 141.996 1235.7 141.002 1252.85 141.002C1288.63 141.002 1315.59 147.587 1333.73 160.757C1351.87 173.928 1360.94 192.192 1360.94 215.551C1360.94 234.437 1356.1 250.589 1346.41 264.008C1336.96 277.178 1323.92 286.373 1307.27 291.591C1307.02 291.591 1306.9 291.715 1306.9 291.964C1306.9 292.461 1307.02 292.709 1307.27 292.709C1317.95 299.916 1327.77 314.577 1336.72 336.693L1360.57 397.078C1362.56 401.8 1362.06 406.272 1359.08 410.497C1356.1 414.721 1352.12 416.834 1347.15 416.834C1340.69 416.834 1334.85 415.094 1329.63 411.615C1324.42 407.888 1320.69 403.042 1318.45 397.078L1294.97 336.693C1289.75 323.274 1283.91 314.701 1277.45 310.974C1271.24 306.998 1259.31 305.01 1241.67 305.01H1222.66C1220.42 305.01 1219.3 306.128 1219.3 308.365V396.333C1219.3 402.048 1217.31 406.894 1213.34 410.87ZM1546.94 182.377L1507.8 309.483C1507.55 310.228 1507.67 310.974 1508.17 311.719C1508.67 312.216 1509.29 312.465 1510.03 312.465H1584.58C1585.33 312.465 1585.95 312.216 1586.45 311.719C1586.94 310.974 1587.07 310.228 1586.82 309.483L1547.68 182.377C1547.68 182.128 1547.56 182.004 1547.31 182.004C1547.06 182.004 1546.94 182.128 1546.94 182.377ZM1453.75 416.834C1448.53 416.834 1444.31 414.721 1441.08 410.497C1438.1 406.272 1437.47 401.675 1439.21 396.705L1518.98 164.858C1520.97 158.894 1524.57 154.048 1529.79 150.321C1535.01 146.593 1540.72 144.729 1546.94 144.729H1549.17C1555.63 144.729 1561.35 146.593 1566.32 150.321C1571.54 154.048 1575.14 158.894 1577.13 164.858L1656.9 396.705C1658.64 401.675 1657.89 406.272 1654.66 410.497C1651.68 414.721 1647.58 416.834 1642.36 416.834H1640.87C1634.66 416.834 1628.94 414.97 1623.72 411.242C1618.75 407.515 1615.27 402.669 1613.29 396.705L1598.38 347.503C1598.13 345.515 1596.76 344.521 1594.28 344.521H1500.34C1498.11 344.521 1496.74 345.515 1496.24 347.503L1481.33 396.705C1479.59 402.669 1476.12 407.515 1470.9 411.242C1465.93 414.97 1460.21 416.834 1453.75 416.834ZM1773.79 411.242C1770.06 414.97 1765.47 416.834 1760 416.834C1754.53 416.834 1749.81 414.97 1745.83 411.242C1742.11 407.266 1740.24 402.545 1740.24 397.078V164.485C1740.24 159.018 1742.11 154.421 1745.83 150.693C1749.81 146.717 1754.53 144.729 1760 144.729C1773.17 144.729 1782.74 150.569 1788.7 162.248L1862.13 304.637C1862.13 304.886 1862.26 305.01 1862.5 305.01C1862.75 305.01 1862.88 304.886 1862.88 304.637L1935.93 162.994C1942.15 150.818 1952.09 144.729 1965.75 144.729C1971.47 144.729 1976.32 146.717 1980.29 150.693C1984.27 154.669 1986.26 159.515 1986.26 165.23V396.333C1986.26 402.048 1984.27 406.894 1980.29 410.87C1976.32 414.846 1971.47 416.834 1965.75 416.834C1960.04 416.834 1955.19 414.846 1951.22 410.87C1947.24 406.894 1945.25 402.048 1945.25 396.333V215.924C1945.25 215.675 1945.13 215.551 1944.88 215.551C1944.63 215.551 1944.51 215.675 1944.51 215.924L1889.34 325.511C1883.63 336.693 1874.68 342.285 1862.5 342.285C1850.33 342.285 1841.38 336.693 1835.67 325.511L1780.5 215.924C1780.5 215.675 1780.38 215.551 1780.13 215.551C1779.88 215.551 1779.75 215.675 1779.75 215.924V397.078C1779.75 402.545 1777.77 407.266 1773.79 411.242ZM2182.77 182.377L2143.63 309.483C2143.39 310.228 2143.51 310.974 2144.01 311.719C2144.51 312.216 2145.13 312.465 2145.87 312.465H2220.42C2221.17 312.465 2221.79 312.216 2222.29 311.719C2222.79 310.974 2222.91 310.228 2222.65 309.483L2183.51 182.377C2183.51 182.128 2183.39 182.004 2183.15 182.004C2182.89 182.004 2182.77 182.128 2182.77 182.377ZM2089.58 416.834C2084.37 416.834 2080.14 414.721 2076.92 410.497C2073.93 406.272 2073.31 401.675 2075.05 396.705L2154.81 164.858C2156.8 158.894 2160.4 154.048 2165.63 150.321C2170.84 146.593 2176.56 144.729 2182.77 144.729H2185.01C2191.47 144.729 2197.18 146.593 2202.15 150.321C2207.38 154.048 2210.98 158.894 2212.97 164.858L2292.73 396.705C2294.47 401.675 2293.73 406.272 2290.5 410.497C2287.52 414.721 2283.41 416.834 2278.2 416.834H2276.7C2270.48 416.834 2264.77 414.97 2259.56 411.242C2254.59 407.515 2251.11 402.669 2249.12 396.705L2234.21 347.503C2233.97 345.515 2232.59 344.521 2230.1 344.521H2136.18C2133.95 344.521 2132.57 345.515 2132.09 347.503L2117.18 396.705C2115.43 402.669 2111.95 407.515 2106.74 411.242C2101.77 414.97 2096.05 416.834 2089.58 416.834ZM2410.36 410.87C2406.4 414.846 2401.67 416.834 2396.22 416.834C2390.74 416.834 2386.01 414.846 2382.05 410.87C2378.06 406.894 2376.08 402.172 2376.08 396.705V164.858C2376.08 159.391 2378.06 154.669 2382.05 150.693C2386.01 146.717 2390.74 144.729 2396.22 144.729C2409.38 144.729 2419.44 150.569 2426.4 162.248L2532.27 347.503C2532.27 347.751 2532.51 347.876 2533.01 347.876C2533.25 347.876 2533.37 347.751 2533.37 347.503V164.858C2533.37 159.391 2535.37 154.669 2539.34 150.693C2543.31 146.717 2548.04 144.729 2553.51 144.729C2558.98 144.729 2563.69 146.717 2567.68 150.693C2571.65 154.669 2573.63 159.391 2573.63 164.858V396.705C2573.63 402.172 2571.65 406.894 2567.68 410.87C2563.69 414.846 2558.98 416.834 2553.51 416.834C2540.34 416.834 2530.26 410.994 2523.31 399.315L2417.08 214.06C2417.08 213.812 2416.96 213.687 2416.72 213.687C2416.46 213.687 2416.34 213.812 2416.34 214.06V396.705C2416.34 402.172 2414.35 406.894 2410.36 410.87ZM2680.74 414.97C2675.51 413.727 2671.17 410.87 2667.7 406.397C2664.47 401.675 2662.85 396.457 2662.85 390.741C2662.85 386.268 2664.59 382.79 2668.06 380.305C2671.79 377.82 2675.77 377.323 2680 378.814C2696.4 384.281 2713.05 387.014 2729.94 387.014C2747.34 387.014 2760 381.671 2767.96 370.986C2776.16 360.301 2780.26 342.036 2780.26 316.192V165.976C2780.26 160.26 2782.37 155.291 2786.6 151.066C2790.82 146.842 2795.79 144.729 2801.51 144.729H2801.89C2807.6 144.729 2812.57 146.842 2816.8 151.066C2821.02 155.291 2823.13 160.26 2823.13 165.976V327.375C2823.13 359.928 2815.67 383.659 2800.76 398.569C2785.85 413.23 2762.25 420.561 2729.94 420.561C2712.31 420.561 2695.89 418.697 2680.74 414.97Z" fill="white"/>
<path fill-rule="evenodd" clip-rule="evenodd" d="M3055.65 140.01H3030.64C2977.51 140.01 2934.45 183.077 2934.45 236.203V333.467C2934.45 386.593 2977.51 429.66 3030.64 429.66H3055.65C3108.77 429.66 3151.84 386.593 3151.84 333.467V236.203C3151.84 183.077 3108.77 140.01 3055.65 140.01ZM2964.51 236.203C2964.51 199.678 2994.1 170.07 3030.64 170.07H3038.07C3038.07 170.16 3038.07 170.25 3038.07 170.341V184.808C3038.07 184.881 3038.07 184.954 3038.07 185.026C3031.86 187.233 3027.41 193.166 3027.41 200.138V222.712C3027.41 229.718 3031.9 235.674 3038.17 237.856C3038.11 238.199 3038.07 238.553 3038.07 238.916V264.968C3038.07 268.289 3040.76 270.98 3044.08 270.98C3047.41 270.98 3050.1 268.289 3050.1 264.968V238.916C3050.1 238.389 3050.04 237.878 3049.9 237.389C3055.55 234.906 3059.48 229.269 3059.48 222.712V200.138C3059.48 193.641 3055.61 188.047 3050.06 185.528C3050.08 185.292 3050.1 185.052 3050.1 184.808V170.341C3050.1 170.25 3050.1 170.16 3050.1 170.07H3055.65C3092.16 170.07 3121.78 199.678 3121.78 236.203V333.467C3121.78 369.99 3092.16 399.6 3055.65 399.6H3030.64C2994.1 399.6 2964.51 369.99 2964.51 333.467V236.203ZM3051.46 200.138V222.712C3051.46 227.139 3047.87 230.728 3043.44 230.728C3039.01 230.728 3035.43 227.139 3035.43 222.712V200.138C3035.43 195.711 3039.01 192.122 3043.44 192.122C3047.87 192.122 3051.46 195.711 3051.46 200.138Z" fill="white"/>
<path d="M917.642 889.779C913.033 889.779 909.025 888.075 905.618 884.669C902.211 881.262 900.508 877.254 900.508 872.645V687.474C900.508 682.865 902.211 678.857 905.618 675.45C909.025 672.043 913.033 670.34 917.642 670.34H1019.25C1023.05 670.34 1026.26 671.643 1028.86 674.248C1031.47 676.853 1032.77 680.059 1032.77 683.867C1032.77 687.675 1031.47 690.881 1028.86 693.486C1026.26 696.091 1023.05 697.394 1019.25 697.394H936.279C934.476 697.394 933.574 698.196 933.574 699.799V757.214C933.574 759.017 934.476 759.919 936.279 759.919H1013.83C1017.44 759.919 1020.45 761.222 1022.85 763.827C1025.46 766.232 1026.76 769.238 1026.76 772.845C1026.76 776.452 1025.46 779.558 1022.85 782.164C1020.45 784.568 1017.44 785.771 1013.83 785.771H936.279C934.476 785.771 933.574 786.673 933.574 788.476V860.019C933.574 861.823 934.476 862.725 936.279 862.725H1019.25C1023.05 862.725 1026.26 864.027 1028.86 866.633C1031.47 869.238 1032.77 872.444 1032.77 876.252C1032.77 880.059 1031.47 883.266 1028.86 885.871C1026.26 888.476 1023.05 889.779 1019.25 889.779H917.642ZM1142.72 884.969C1139.51 888.176 1135.7 889.779 1131.29 889.779C1126.88 889.779 1123.08 888.176 1119.87 884.969C1116.66 881.763 1115.06 877.955 1115.06 873.546V686.572C1115.06 682.164 1116.66 678.356 1119.87 675.15C1123.08 671.943 1126.88 670.34 1131.29 670.34C1141.91 670.34 1150.03 675.049 1155.64 684.468L1241.01 833.867C1241.01 834.067 1241.21 834.168 1241.61 834.168C1241.81 834.168 1241.91 834.067 1241.91 833.867V686.572C1241.91 682.164 1243.52 678.356 1246.72 675.15C1249.93 671.943 1253.74 670.34 1258.15 670.34C1262.56 670.34 1266.36 671.943 1269.57 675.15C1272.78 678.356 1274.38 682.164 1274.38 686.572V873.546C1274.38 877.955 1272.78 881.763 1269.57 884.969C1266.36 888.176 1262.56 889.779 1258.15 889.779C1247.53 889.779 1239.41 885.069 1233.8 875.651L1148.13 726.252C1148.13 726.051 1148.03 725.951 1147.83 725.951C1147.63 725.951 1147.53 726.051 1147.53 726.252V873.546C1147.53 877.955 1145.92 881.763 1142.72 884.969ZM1366.17 697.995C1362.36 697.995 1359.05 696.693 1356.25 694.088C1353.64 691.282 1352.34 687.975 1352.34 684.168C1352.34 680.36 1353.64 677.154 1356.25 674.548C1359.05 671.743 1362.36 670.34 1366.17 670.34H1494.82C1498.63 670.34 1501.84 671.743 1504.44 674.548C1507.25 677.154 1508.65 680.36 1508.65 684.168C1508.65 687.975 1507.25 691.282 1504.44 694.088C1501.84 696.693 1498.63 697.995 1494.82 697.995H1449.73C1447.93 697.995 1447.03 698.897 1447.03 700.701V873.246C1447.03 877.855 1445.42 881.763 1442.22 884.969C1439.01 888.176 1435.1 889.779 1430.49 889.779C1425.88 889.779 1421.98 888.176 1418.77 884.969C1415.56 881.763 1413.96 877.855 1413.96 873.246V700.701C1413.96 698.897 1413.06 697.995 1411.26 697.995H1366.17ZM1603.58 889.779C1598.97 889.779 1594.96 888.075 1591.55 884.669C1588.15 881.262 1586.44 877.254 1586.44 872.645V687.474C1586.44 682.865 1588.15 678.857 1591.55 675.45C1594.96 672.043 1598.97 670.34 1603.58 670.34H1705.18C1708.99 670.34 1712.19 671.643 1714.8 674.248C1717.4 676.853 1718.71 680.059 1718.71 683.867C1718.71 687.675 1717.4 690.881 1714.8 693.486C1712.19 696.091 1708.99 697.394 1705.18 697.394H1622.21C1620.41 697.394 1619.51 698.196 1619.51 699.799V757.214C1619.51 759.017 1620.41 759.919 1622.21 759.919H1699.77C1703.38 759.919 1706.38 761.222 1708.79 763.827C1711.39 766.232 1712.69 769.238 1712.69 772.845C1712.69 776.452 1711.39 779.558 1708.79 782.164C1706.38 784.568 1703.38 785.771 1699.77 785.771H1622.21C1620.41 785.771 1619.51 786.673 1619.51 788.476V860.019C1619.51 861.823 1620.41 862.725 1622.21 862.725H1705.18C1708.99 862.725 1712.19 864.027 1714.8 866.633C1717.4 869.238 1718.71 872.444 1718.71 876.252C1718.71 880.059 1717.4 883.266 1714.8 885.871C1712.19 888.476 1708.99 889.779 1705.18 889.779H1603.58ZM1834.06 698.597V771.041C1834.06 772.845 1834.96 773.747 1836.77 773.747H1852.1C1894.58 773.747 1915.82 759.318 1915.82 730.46C1915.82 718.236 1911.22 709.118 1902 703.106C1892.98 696.893 1878.35 693.787 1858.11 693.787C1850.49 693.787 1843.28 694.388 1836.47 695.591C1834.86 695.991 1834.06 696.993 1834.06 698.597ZM1829.25 884.969C1826.04 888.176 1822.14 889.779 1817.53 889.779C1812.92 889.779 1809.01 888.176 1805.8 884.969C1802.6 881.763 1800.99 877.855 1800.99 873.246V688.977C1800.99 683.967 1802.6 679.659 1805.8 676.051C1809.01 672.244 1813.12 670.14 1818.13 669.739C1832.96 668.136 1847.29 667.334 1861.12 667.334C1889.97 667.334 1911.72 672.645 1926.35 683.266C1940.97 693.887 1948.29 708.617 1948.29 727.454C1948.29 742.685 1944.38 755.711 1936.57 766.532C1928.95 777.154 1918.43 784.568 1905 788.777C1904.8 788.777 1904.7 788.877 1904.7 789.077C1904.7 789.478 1904.8 789.679 1905 789.679C1913.62 795.49 1921.54 807.314 1928.75 825.15L1947.99 873.847C1949.59 877.655 1949.19 881.262 1946.79 884.669C1944.38 888.075 1941.18 889.779 1937.17 889.779C1931.96 889.779 1927.25 888.376 1923.04 885.57C1918.83 882.564 1915.82 878.657 1914.02 873.847L1895.08 825.15C1890.87 814.328 1886.17 807.414 1880.95 804.408C1875.94 801.202 1866.33 799.599 1852.1 799.599H1836.77C1834.96 799.599 1834.06 800.5 1834.06 802.304V873.246C1834.06 877.855 1832.46 881.763 1829.25 884.969ZM2055.37 698.597V777.655C2055.37 779.258 2056.27 780.26 2058.07 780.661C2068.29 782.063 2077.41 782.765 2085.43 782.765C2103.06 782.765 2116.59 778.957 2126.01 771.342C2135.43 763.526 2140.14 752.404 2140.14 737.975C2140.14 723.546 2135.53 712.625 2126.31 705.21C2117.09 697.594 2103.46 693.787 2085.43 693.787C2075.81 693.787 2066.69 694.388 2058.07 695.591C2056.27 695.991 2055.37 696.993 2055.37 698.597ZM2050.56 884.969C2047.35 888.176 2043.44 889.779 2038.83 889.779C2034.23 889.779 2030.32 888.176 2027.11 884.969C2023.9 881.763 2022.3 877.855 2022.3 873.246V688.977C2022.3 684.168 2023.9 679.859 2027.11 676.051C2030.32 672.244 2034.33 670.14 2039.14 669.739C2056.17 668.136 2072.6 667.334 2088.43 667.334C2116.09 667.334 2137.03 673.246 2151.26 685.069C2165.49 696.693 2172.6 713.326 2172.6 734.969C2172.6 784.067 2144.55 808.617 2088.43 808.617C2076.61 808.617 2066.39 808.216 2057.77 807.414C2056.17 807.414 2055.37 808.216 2055.37 809.819V873.246C2055.37 877.855 2053.76 881.763 2050.56 884.969ZM2276.09 698.597V771.041C2276.09 772.845 2276.99 773.747 2278.79 773.747H2294.13C2336.61 773.747 2357.85 759.318 2357.85 730.46C2357.85 718.236 2353.24 709.118 2344.03 703.106C2335.01 696.893 2320.38 693.787 2300.14 693.787C2292.52 693.787 2285.31 694.388 2278.49 695.591C2276.89 695.991 2276.09 696.993 2276.09 698.597ZM2271.28 884.969C2268.07 888.176 2264.17 889.779 2259.56 889.779C2254.95 889.779 2251.04 888.176 2247.83 884.969C2244.63 881.763 2243.02 877.855 2243.02 873.246V688.977C2243.02 683.967 2244.63 679.659 2247.83 676.051C2251.04 672.244 2255.15 670.14 2260.16 669.739C2274.99 668.136 2289.32 667.334 2303.14 667.334C2332 667.334 2353.74 672.645 2368.37 683.266C2383 693.887 2390.32 708.617 2390.32 727.454C2390.32 742.685 2386.41 755.711 2378.59 766.532C2370.98 777.154 2360.46 784.568 2347.03 788.777C2346.83 788.777 2346.73 788.877 2346.73 789.077C2346.73 789.478 2346.83 789.679 2347.03 789.679C2355.65 795.49 2363.56 807.314 2370.78 825.15L2390.02 873.847C2391.62 877.655 2391.22 881.262 2388.81 884.669C2386.41 888.075 2383.2 889.779 2379.2 889.779C2373.98 889.779 2369.28 888.376 2365.07 885.57C2360.86 882.564 2357.85 878.657 2356.05 873.847L2337.11 825.15C2332.9 814.328 2328.19 807.414 2322.98 804.408C2317.97 801.202 2308.35 799.599 2294.13 799.599H2278.79C2276.99 799.599 2276.09 800.5 2276.09 802.304V873.246C2276.09 877.855 2274.49 881.763 2271.28 884.969ZM2488.97 889.779C2484.37 889.779 2480.36 888.075 2476.95 884.669C2473.54 881.262 2471.84 877.254 2471.84 872.645V687.474C2471.84 682.865 2473.54 678.857 2476.95 675.45C2480.36 672.043 2484.37 670.34 2488.97 670.34H2490.78C2495.39 670.34 2499.4 672.043 2502.8 675.45C2506.21 678.857 2507.91 682.865 2507.91 687.474V872.645C2507.91 877.254 2506.21 881.262 2502.8 884.669C2499.4 888.075 2495.39 889.779 2490.78 889.779H2488.97ZM2657.91 792.083C2635.07 784.268 2618.53 774.949 2608.31 764.128C2598.29 753.106 2593.28 739.879 2593.28 724.448C2593.28 706.813 2598.89 692.885 2610.12 682.665C2621.34 672.444 2636.77 667.334 2656.41 667.334C2674.85 667.334 2691.08 669.538 2705.11 673.947C2709.32 675.35 2712.72 678.055 2715.33 682.063C2718.13 685.871 2719.54 690.18 2719.54 694.989C2719.54 698.396 2718.03 701.001 2715.03 702.805C2712.02 704.609 2708.91 704.809 2705.71 703.406C2690.48 696.993 2675.05 693.787 2659.42 693.787C2648.59 693.787 2640.28 696.492 2634.47 701.903C2628.65 707.314 2625.75 714.829 2625.75 724.448C2625.75 732.264 2628.45 739.378 2633.86 745.791C2639.28 752.003 2647.29 756.913 2657.91 760.52C2684.37 769.338 2702.7 779.158 2712.92 789.979C2723.34 800.801 2728.55 814.528 2728.55 831.162C2728.55 851.402 2722.34 866.733 2709.92 877.154C2697.49 887.574 2679.16 892.785 2654.91 892.785C2639.08 892.785 2624.75 890.38 2611.92 885.57C2602.5 881.763 2597.79 874.348 2597.79 863.326C2597.79 859.919 2599.3 857.414 2602.3 855.811C2605.31 854.208 2608.31 854.208 2611.32 855.811C2623.74 862.424 2637.27 865.731 2651.9 865.731C2680.96 865.731 2695.49 854.208 2695.49 831.162C2695.49 822.344 2692.58 814.829 2686.77 808.617C2681.16 802.404 2671.54 796.893 2657.91 792.083ZM2823.68 889.779C2819.08 889.779 2815.07 888.075 2811.66 884.669C2808.25 881.262 2806.55 877.254 2806.55 872.645V687.474C2806.55 682.865 2808.25 678.857 2811.66 675.45C2815.07 672.043 2819.08 670.34 2823.68 670.34H2925.29C2929.1 670.34 2932.3 671.643 2934.91 674.248C2937.51 676.853 2938.81 680.059 2938.81 683.867C2938.81 687.675 2937.51 690.881 2934.91 693.486C2932.3 696.091 2929.1 697.394 2925.29 697.394H2842.32C2840.52 697.394 2839.62 698.196 2839.62 699.799V757.214C2839.62 759.017 2840.52 759.919 2842.32 759.919H2919.88C2923.48 759.919 2926.49 761.222 2928.89 763.827C2931.5 766.232 2932.8 769.238 2932.8 772.845C2932.8 776.452 2931.5 779.558 2928.89 782.164C2926.49 784.568 2923.48 785.771 2919.88 785.771H2842.32C2840.52 785.771 2839.62 786.673 2839.62 788.476V860.019C2839.62 861.823 2840.52 862.725 2842.32 862.725H2925.29C2929.1 862.725 2932.3 864.027 2934.91 866.633C2937.51 869.238 2938.81 872.444 2938.81 876.252C2938.81 880.059 2937.51 883.266 2934.91 885.871C2932.3 888.476 2929.1 889.779 2925.29 889.779H2823.68ZM3075.27 792.083C3052.42 784.268 3035.89 774.949 3025.67 764.128C3015.65 753.106 3010.64 739.879 3010.64 724.448C3010.64 706.813 3016.25 692.885 3027.47 682.665C3038.69 672.444 3054.13 667.334 3073.76 667.334C3092.2 667.334 3108.43 669.538 3122.46 673.947C3126.67 675.35 3130.08 678.055 3132.68 682.063C3135.49 685.871 3136.89 690.18 3136.89 694.989C3136.89 698.396 3135.39 701.001 3132.38 702.805C3129.38 704.609 3126.27 704.809 3123.06 703.406C3107.83 696.993 3092.4 693.787 3076.77 693.787C3065.95 693.787 3057.63 696.492 3051.82 701.903C3046.01 707.314 3043.1 714.829 3043.1 724.448C3043.1 732.264 3045.81 739.378 3051.22 745.791C3056.63 752.003 3064.65 756.913 3075.27 760.52C3101.72 769.338 3120.06 779.158 3130.28 789.979C3140.7 800.801 3145.91 814.528 3145.91 831.162C3145.91 851.402 3139.7 866.733 3127.27 877.154C3114.85 887.574 3096.51 892.785 3072.26 892.785C3056.43 892.785 3042.1 890.38 3029.28 885.57C3019.86 881.763 3015.15 874.348 3015.15 863.326C3015.15 859.919 3016.65 857.414 3019.66 855.811C3022.66 854.208 3025.67 854.208 3028.67 855.811C3041.1 862.424 3054.63 865.731 3069.26 865.731C3098.31 865.731 3112.84 854.208 3112.84 831.162C3112.84 822.344 3109.94 814.829 3104.13 808.617C3098.51 802.404 3088.89 796.893 3075.27 792.083Z" fill="white"/>
</svg>
