<svg width="3235" height="1000" viewBox="0 0 3235 1000" fill="none" xmlns="http://www.w3.org/2000/svg">
<mask id="mask0_40_66" style="mask-type:luminance" maskUnits="userSpaceOnUse" x="0" y="21" width="748" height="958">
<path d="M747.607 21.042H0V978.958H747.607V21.042Z" fill="white"/>
</mask>
<g mask="url(#mask0_40_66)">
<path d="M645.734 500C707.673 450.703 747.687 374.84 747.687 289.691C747.607 141.562 627.086 21.042 478.958 21.042H58.4192C26.1685 21.042 0 47.2105 0 79.4612C0 111.712 26.1685 137.88 58.4192 137.88H478.958C562.665 137.88 630.848 205.984 630.848 289.771C630.848 373.559 562.745 441.661 478.958 441.661H116.838V348.11H478.958C511.208 348.11 537.377 321.942 537.377 289.691C537.377 257.441 511.208 231.27 478.958 231.27H58.4192C26.1685 231.27 0 257.441 0 289.691V710.228C0 742.479 26.1685 768.649 58.4192 768.649H478.958C511.208 768.649 537.377 742.479 537.377 710.228C537.377 677.978 511.208 651.81 478.958 651.81H116.838V558.419H478.958C562.665 558.419 630.848 626.521 630.848 710.309C630.848 794.096 562.665 862.12 478.958 862.12H58.4192C26.1685 862.12 0 888.289 0 920.539C0 952.789 26.1685 978.958 58.4192 978.958H478.958C627.086 978.958 747.607 858.439 747.607 710.309C747.607 625.16 707.673 549.297 645.734 500Z" fill="url(#paint0_linear_40_66)"/>
</g>
<path d="M947.428 291.218V381.796C947.428 383.784 948.422 385.026 950.41 385.523C960.101 387.014 970.289 387.759 980.975 387.759C1004.33 387.759 1021.48 383.411 1032.41 374.713C1043.35 366.016 1048.81 352.721 1048.81 334.83C1048.81 318.677 1042.23 306.874 1029.06 299.419C1015.89 291.715 993.648 287.864 962.338 287.864H950.783C948.546 287.864 947.428 288.982 947.428 291.218ZM947.428 179.767V252.453C947.428 254.689 948.546 255.808 950.783 255.808H962.338C989.672 255.808 1009.3 252.329 1021.23 245.371C1033.41 238.413 1039.5 227.852 1039.5 213.687C1039.5 200.02 1034.65 189.956 1024.96 183.495C1015.27 177.034 999.364 173.804 977.247 173.804C967.805 173.804 958.859 174.549 950.41 176.04C948.422 176.537 947.428 177.78 947.428 179.767ZM927.672 417.952C921.46 417.206 916.366 414.597 912.39 410.124C908.414 405.403 906.426 399.936 906.426 393.723V167.84C906.426 161.627 908.414 156.285 912.39 151.812C916.366 147.09 921.46 144.357 927.672 143.611C942.582 141.872 959.107 141.002 977.247 141.002C1044.34 141.002 1077.89 163.367 1077.89 208.096C1077.89 223.006 1072.79 236.176 1062.61 247.607C1052.42 258.79 1039 265.996 1022.35 269.226C1022.1 269.226 1021.98 269.351 1021.98 269.599C1021.98 269.848 1022.1 269.972 1022.35 269.972C1043.22 273.202 1059.5 280.906 1071.18 293.082C1083.11 305.258 1089.07 320.417 1089.07 338.557C1089.07 393.226 1053.04 420.561 980.975 420.561C961.344 420.561 943.576 419.691 927.672 417.952ZM1219.3 179.767V269.599C1219.3 271.836 1220.42 272.954 1222.65 272.954H1241.66C1294.34 272.954 1320.68 255.062 1320.68 219.279C1320.68 204.12 1314.97 192.814 1303.54 185.359C1292.36 177.655 1274.22 173.804 1249.12 173.804C1239.67 173.804 1230.73 174.549 1222.28 176.04C1220.29 176.537 1219.3 177.78 1219.3 179.767ZM1213.33 410.87C1209.36 414.846 1204.51 416.834 1198.8 416.834C1193.08 416.834 1188.24 414.846 1184.26 410.87C1180.28 406.894 1178.3 402.048 1178.3 396.333V167.84C1178.3 161.627 1180.28 156.285 1184.26 151.812C1188.24 147.09 1193.33 144.481 1199.54 143.984C1217.93 141.996 1235.7 141.002 1252.84 141.002C1288.63 141.002 1315.59 147.587 1333.73 160.757C1351.87 173.928 1360.94 192.192 1360.94 215.551C1360.94 234.437 1356.1 250.589 1346.4 264.008C1336.96 277.178 1323.91 286.373 1307.27 291.591C1307.02 291.591 1306.89 291.715 1306.89 291.964C1306.89 292.461 1307.02 292.709 1307.27 292.709C1317.95 299.916 1327.77 314.577 1336.71 336.693L1360.57 397.078C1362.56 401.8 1362.06 406.272 1359.08 410.497C1356.1 414.721 1352.12 416.834 1347.15 416.834C1340.69 416.834 1334.85 415.094 1329.63 411.615C1324.41 407.888 1320.68 403.042 1318.45 397.078L1294.96 336.693C1289.75 323.274 1283.91 314.701 1277.45 310.974C1271.23 306.998 1259.31 305.01 1241.66 305.01H1222.65C1220.42 305.01 1219.3 306.128 1219.3 308.365V396.333C1219.3 402.048 1217.31 406.894 1213.33 410.87ZM1546.93 182.377L1507.79 309.483C1507.55 310.228 1507.67 310.974 1508.17 311.719C1508.66 312.216 1509.29 312.465 1510.03 312.465H1584.58C1585.33 312.465 1585.95 312.216 1586.44 311.719C1586.94 310.974 1587.07 310.228 1586.82 309.483L1547.68 182.377C1547.68 182.128 1547.55 182.004 1547.31 182.004C1547.06 182.004 1546.93 182.128 1546.93 182.377ZM1453.75 416.834C1448.53 416.834 1444.3 414.721 1441.07 410.497C1438.09 406.272 1437.47 401.675 1439.21 396.705L1518.98 164.858C1520.96 158.894 1524.57 154.048 1529.79 150.321C1535 146.593 1540.72 144.729 1546.93 144.729H1549.17C1555.63 144.729 1561.35 146.593 1566.32 150.321C1571.53 154.048 1575.14 158.894 1577.13 164.858L1656.89 396.705C1658.63 401.675 1657.89 406.272 1654.66 410.497C1651.67 414.721 1647.57 416.834 1642.36 416.834H1640.86C1634.65 416.834 1628.94 414.97 1623.72 411.242C1618.75 407.515 1615.27 402.669 1613.28 396.705L1598.37 347.503C1598.12 345.515 1596.76 344.521 1594.27 344.521H1500.34C1498.1 344.521 1496.74 345.515 1496.24 347.503L1481.33 396.705C1479.59 402.669 1476.11 407.515 1470.89 411.242C1465.92 414.97 1460.21 416.834 1453.75 416.834ZM1773.79 411.242C1770.06 414.97 1765.46 416.834 1759.99 416.834C1754.53 416.834 1749.81 414.97 1745.83 411.242C1742.1 407.267 1740.24 402.545 1740.24 397.078V164.485C1740.24 159.018 1742.1 154.421 1745.83 150.693C1749.81 146.717 1754.53 144.729 1759.99 144.729C1773.17 144.729 1782.73 150.569 1788.7 162.248L1862.13 304.637C1862.13 304.886 1862.25 305.01 1862.5 305.01C1862.75 305.01 1862.87 304.886 1862.87 304.637L1935.93 162.994C1942.14 150.818 1952.08 144.729 1965.75 144.729C1971.47 144.729 1976.31 146.717 1980.29 150.693C1984.26 154.669 1986.25 159.515 1986.25 165.23V396.333C1986.25 402.048 1984.26 406.894 1980.29 410.87C1976.31 414.846 1971.47 416.834 1965.75 416.834C1960.03 416.834 1955.19 414.846 1951.21 410.87C1947.24 406.894 1945.25 402.048 1945.25 396.333V215.924C1945.25 215.675 1945.13 215.551 1944.88 215.551C1944.63 215.551 1944.5 215.675 1944.5 215.924L1889.34 325.511C1883.62 336.693 1874.68 342.285 1862.5 342.285C1850.32 342.285 1841.38 336.693 1835.66 325.511L1780.5 215.924C1780.5 215.675 1780.37 215.551 1780.12 215.551C1779.87 215.551 1779.75 215.675 1779.75 215.924V397.078C1779.75 402.545 1777.76 407.267 1773.79 411.242ZM2182.76 182.377L2143.63 309.483C2143.39 310.228 2143.51 310.974 2144.01 311.719C2144.51 312.216 2145.13 312.465 2145.87 312.465H2220.42C2221.16 312.465 2221.78 312.216 2222.28 311.719C2222.78 310.974 2222.9 310.228 2222.64 309.483L2183.51 182.377C2183.51 182.128 2183.39 182.004 2183.15 182.004C2182.88 182.004 2182.76 182.128 2182.76 182.377ZM2089.58 416.834C2084.37 416.834 2080.14 414.721 2076.91 410.497C2073.93 406.272 2073.31 401.675 2075.05 396.705L2154.81 164.858C2156.79 158.894 2160.4 154.048 2165.63 150.321C2170.84 146.593 2176.55 144.729 2182.76 144.729H2185.01C2191.46 144.729 2197.17 146.593 2202.14 150.321C2207.37 154.048 2210.98 158.894 2212.96 164.858L2292.72 396.705C2294.47 401.675 2293.73 406.272 2290.5 410.497C2287.51 414.721 2283.41 416.834 2278.2 416.834H2276.69C2270.48 416.834 2264.77 414.97 2259.56 411.242C2254.59 407.515 2251.1 402.669 2249.12 396.705L2234.21 347.503C2233.97 345.515 2232.58 344.521 2230.1 344.521H2136.17C2133.95 344.521 2132.56 345.515 2132.08 347.503L2117.17 396.705C2115.43 402.669 2111.94 407.515 2106.73 411.242C2101.76 414.97 2096.05 416.834 2089.58 416.834ZM2410.36 410.87C2406.39 414.846 2401.66 416.834 2396.21 416.834C2390.74 416.834 2386.01 414.846 2382.04 410.87C2378.06 406.894 2376.07 402.172 2376.07 396.705V164.858C2376.07 159.391 2378.06 154.669 2382.04 150.693C2386.01 146.717 2390.74 144.729 2396.21 144.729C2409.38 144.729 2419.44 150.569 2426.39 162.248L2532.26 347.503C2532.26 347.751 2532.5 347.876 2533 347.876C2533.25 347.876 2533.37 347.751 2533.37 347.503V164.858C2533.37 159.391 2535.37 154.669 2539.34 150.693C2543.31 146.717 2548.03 144.729 2553.51 144.729C2558.98 144.729 2563.69 146.717 2567.67 150.693C2571.64 154.669 2573.63 159.391 2573.63 164.858V396.705C2573.63 402.172 2571.64 406.894 2567.67 410.87C2563.69 414.846 2558.98 416.834 2553.51 416.834C2540.34 416.834 2530.26 410.994 2523.31 399.315L2417.07 214.06C2417.07 213.812 2416.95 213.687 2416.71 213.687C2416.45 213.687 2416.33 213.812 2416.33 214.06V396.705C2416.33 402.172 2414.35 406.894 2410.36 410.87ZM2680.74 414.97C2675.51 413.727 2671.16 410.87 2667.69 406.397C2664.47 401.675 2662.84 396.457 2662.84 390.741C2662.84 386.268 2664.59 382.79 2668.06 380.305C2671.78 377.82 2675.77 377.323 2680 378.814C2696.39 384.281 2713.05 387.014 2729.94 387.014C2747.33 387.014 2760 381.671 2767.95 370.986C2776.15 360.301 2780.26 342.036 2780.26 316.192V165.976C2780.26 160.26 2782.36 155.291 2786.59 151.066C2790.82 146.842 2795.79 144.729 2801.5 144.729H2801.88C2807.59 144.729 2812.56 146.842 2816.79 151.066C2821.02 155.291 2823.13 160.26 2823.13 165.976V327.375C2823.13 359.928 2815.67 383.659 2800.76 398.569C2785.85 413.23 2762.24 420.561 2729.94 420.561C2712.3 420.561 2695.89 418.697 2680.74 414.97Z" fill="#2D3191"/>
<path fill-rule="evenodd" clip-rule="evenodd" d="M3055.65 140.01H3030.64C2977.52 140.01 2934.45 183.077 2934.45 236.203V333.467C2934.45 386.593 2977.52 429.66 3030.64 429.66H3055.65C3108.78 429.66 3151.84 386.593 3151.84 333.467V236.203C3151.84 183.077 3108.78 140.01 3055.65 140.01ZM2964.51 236.203C2964.51 199.678 2994.11 170.07 3030.64 170.07H3038.08C3038.08 170.16 3038.08 170.25 3038.08 170.341V184.808C3038.08 184.881 3038.08 184.954 3038.08 185.026C3031.86 187.233 3027.42 193.166 3027.42 200.138V222.712C3027.42 229.718 3031.9 235.674 3038.18 237.856C3038.12 238.199 3038.08 238.553 3038.08 238.916V264.968C3038.08 268.289 3040.76 270.98 3044.09 270.98C3047.42 270.98 3050.1 268.289 3050.1 264.968V238.916C3050.1 238.389 3050.04 237.878 3049.9 237.389C3055.55 234.906 3059.48 229.269 3059.48 222.712V200.138C3059.48 193.641 3055.61 188.047 3050.06 185.528C3050.08 185.292 3050.1 185.052 3050.1 184.808V170.341C3050.1 170.25 3050.1 170.16 3050.1 170.07H3055.65C3092.16 170.07 3121.78 199.678 3121.78 236.203V333.467C3121.78 369.99 3092.16 399.6 3055.65 399.6H3030.64C2994.11 399.6 2964.51 369.99 2964.51 333.467V236.203ZM3051.46 200.138V222.712C3051.46 227.139 3047.88 230.728 3043.45 230.728C3039.02 230.728 3035.43 227.139 3035.43 222.712V200.138C3035.43 195.711 3039.02 192.122 3043.45 192.122C3047.88 192.122 3051.46 195.711 3051.46 200.138Z" fill="url(#paint1_linear_40_66)"/>
<path d="M917.646 889.78C913.037 889.78 909.029 888.076 905.622 884.67C902.215 881.263 900.512 877.255 900.512 872.646V687.475C900.512 682.866 902.215 678.858 905.622 675.451C909.029 672.044 913.037 670.341 917.646 670.341H1019.25C1023.06 670.341 1026.26 671.644 1028.87 674.249C1031.47 676.854 1032.78 680.06 1032.78 683.868C1032.78 687.676 1031.47 690.882 1028.87 693.487C1026.26 696.092 1023.06 697.395 1019.25 697.395H936.283C934.48 697.395 933.578 698.197 933.578 699.8V757.215C933.578 759.018 934.48 759.92 936.283 759.92H1013.84C1017.45 759.92 1020.45 761.223 1022.86 763.828C1025.46 766.233 1026.76 769.239 1026.76 772.846C1026.76 776.453 1025.46 779.559 1022.86 782.165C1020.45 784.569 1017.45 785.772 1013.84 785.772H936.283C934.48 785.772 933.578 786.674 933.578 788.477V860.02C933.578 861.824 934.48 862.726 936.283 862.726H1019.25C1023.06 862.726 1026.26 864.028 1028.87 866.634C1031.47 869.239 1032.78 872.445 1032.78 876.253C1032.78 880.06 1031.47 883.267 1028.87 885.872C1026.26 888.477 1023.06 889.78 1019.25 889.78H917.646ZM1142.72 884.97C1139.51 888.177 1135.71 889.78 1131.3 889.78C1126.89 889.78 1123.08 888.177 1119.87 884.97C1116.67 881.764 1115.06 877.956 1115.06 873.547V686.573C1115.06 682.165 1116.67 678.357 1119.87 675.151C1123.08 671.944 1126.89 670.341 1131.3 670.341C1141.92 670.341 1150.03 675.05 1155.65 684.469L1241.02 833.868C1241.02 834.068 1241.22 834.169 1241.62 834.169C1241.82 834.169 1241.92 834.068 1241.92 833.868V686.573C1241.92 682.165 1243.52 678.357 1246.73 675.151C1249.93 671.944 1253.74 670.341 1258.15 670.341C1262.56 670.341 1266.37 671.944 1269.57 675.151C1272.78 678.357 1274.38 682.165 1274.38 686.573V873.547C1274.38 877.956 1272.78 881.764 1269.57 884.97C1266.37 888.177 1262.56 889.78 1258.15 889.78C1247.53 889.78 1239.41 885.07 1233.8 875.652L1148.13 726.253C1148.13 726.052 1148.03 725.952 1147.83 725.952C1147.63 725.952 1147.53 726.052 1147.53 726.253V873.547C1147.53 877.956 1145.93 881.764 1142.72 884.97ZM1366.17 697.996C1362.36 697.996 1359.05 696.694 1356.25 694.088C1353.64 691.283 1352.34 687.976 1352.34 684.169C1352.34 680.361 1353.64 677.155 1356.25 674.549C1359.05 671.744 1362.36 670.341 1366.17 670.341H1494.83C1498.63 670.341 1501.84 671.744 1504.45 674.549C1507.25 677.155 1508.65 680.361 1508.65 684.169C1508.65 687.976 1507.25 691.283 1504.45 694.088C1501.84 696.694 1498.63 697.996 1494.83 697.996H1449.74C1447.93 697.996 1447.03 698.898 1447.03 700.702V873.247C1447.03 877.856 1445.43 881.764 1442.22 884.97C1439.01 888.177 1435.11 889.78 1430.5 889.78C1425.89 889.78 1421.98 888.177 1418.77 884.97C1415.57 881.764 1413.96 877.856 1413.96 873.247V700.702C1413.96 698.898 1413.06 697.996 1411.26 697.996H1366.17ZM1603.58 889.78C1598.97 889.78 1594.96 888.076 1591.56 884.67C1588.15 881.263 1586.45 877.255 1586.45 872.646V687.475C1586.45 682.866 1588.15 678.858 1591.56 675.451C1594.96 672.044 1598.97 670.341 1603.58 670.341H1705.18C1708.99 670.341 1712.2 671.644 1714.8 674.249C1717.41 676.854 1718.71 680.06 1718.71 683.868C1718.71 687.676 1717.41 690.882 1714.8 693.487C1712.2 696.092 1708.99 697.395 1705.18 697.395H1622.22C1620.41 697.395 1619.51 698.197 1619.51 699.8V757.215C1619.51 759.018 1620.41 759.92 1622.22 759.92H1699.77C1703.38 759.92 1706.39 761.223 1708.79 763.828C1711.4 766.233 1712.7 769.239 1712.7 772.846C1712.7 776.453 1711.4 779.559 1708.79 782.165C1706.39 784.569 1703.38 785.772 1699.77 785.772H1622.22C1620.41 785.772 1619.51 786.674 1619.51 788.477V860.02C1619.51 861.824 1620.41 862.726 1622.22 862.726H1705.18C1708.99 862.726 1712.2 864.028 1714.8 866.634C1717.41 869.239 1718.71 872.445 1718.71 876.253C1718.71 880.06 1717.41 883.267 1714.8 885.872C1712.2 888.477 1708.99 889.78 1705.18 889.78H1603.58ZM1834.06 698.597V771.042C1834.06 772.846 1834.97 773.748 1836.77 773.748H1852.1C1894.59 773.748 1915.83 759.319 1915.83 730.461C1915.83 718.237 1911.22 709.119 1902 703.107C1892.98 696.894 1878.35 693.788 1858.11 693.788C1850.5 693.788 1843.28 694.389 1836.47 695.591C1834.87 695.992 1834.06 696.994 1834.06 698.597ZM1829.26 884.97C1826.05 888.177 1822.14 889.78 1817.53 889.78C1812.92 889.78 1809.01 888.177 1805.81 884.97C1802.6 881.764 1801 877.856 1801 873.247V688.978C1801 683.968 1802.6 679.66 1805.81 676.052C1809.01 672.245 1813.12 670.141 1818.13 669.74C1832.96 668.137 1847.29 667.335 1861.12 667.335C1889.98 667.335 1911.72 672.646 1926.35 683.267C1940.98 693.888 1948.29 708.618 1948.29 727.455C1948.29 742.686 1944.39 755.712 1936.57 766.533C1928.95 777.155 1918.43 784.569 1905.01 788.778C1904.81 788.778 1904.71 788.878 1904.71 789.078C1904.71 789.479 1904.81 789.68 1905.01 789.68C1913.62 795.491 1921.54 807.315 1928.75 825.151L1947.99 873.848C1949.6 877.656 1949.2 881.263 1946.79 884.67C1944.39 888.076 1941.18 889.78 1937.17 889.78C1931.96 889.78 1927.25 888.377 1923.04 885.571C1918.83 882.565 1915.83 878.658 1914.02 873.848L1895.09 825.151C1890.88 814.329 1886.17 807.415 1880.96 804.409C1875.95 801.203 1866.33 799.599 1852.1 799.599H1836.77C1834.97 799.599 1834.06 800.501 1834.06 802.305V873.247C1834.06 877.856 1832.46 881.764 1829.26 884.97ZM2055.37 698.597V777.656C2055.37 779.259 2056.27 780.261 2058.08 780.662C2068.3 782.064 2077.42 782.766 2085.43 782.766C2103.07 782.766 2116.59 778.958 2126.01 771.343C2135.43 763.527 2140.14 752.405 2140.14 737.976C2140.14 723.547 2135.53 712.626 2126.31 705.211C2117.09 697.595 2103.47 693.788 2085.43 693.788C2075.81 693.788 2066.69 694.389 2058.08 695.591C2056.27 695.992 2055.37 696.994 2055.37 698.597ZM2050.56 884.97C2047.36 888.177 2043.45 889.78 2038.84 889.78C2034.23 889.78 2030.32 888.177 2027.11 884.97C2023.91 881.764 2022.31 877.856 2022.31 873.247V688.978C2022.31 684.169 2023.91 679.86 2027.11 676.052C2030.32 672.245 2034.33 670.141 2039.14 669.74C2056.17 668.137 2072.61 667.335 2088.44 667.335C2116.09 667.335 2137.03 673.247 2151.26 685.07C2165.49 696.694 2172.61 713.327 2172.61 734.97C2172.61 784.068 2144.55 808.618 2088.44 808.618C2076.61 808.618 2066.39 808.217 2057.78 807.415C2056.17 807.415 2055.37 808.217 2055.37 809.82V873.247C2055.37 877.856 2053.77 881.764 2050.56 884.97ZM2276.09 698.597V771.042C2276.09 772.846 2276.99 773.748 2278.8 773.748H2294.13C2336.61 773.748 2357.86 759.319 2357.86 730.461C2357.86 718.237 2353.25 709.119 2344.03 703.107C2335.01 696.894 2320.38 693.788 2300.14 693.788C2292.53 693.788 2285.31 694.389 2278.5 695.591C2276.89 695.992 2276.09 696.994 2276.09 698.597ZM2271.28 884.97C2268.08 888.177 2264.17 889.78 2259.56 889.78C2254.95 889.78 2251.04 888.177 2247.84 884.97C2244.63 881.764 2243.03 877.856 2243.03 873.247V688.978C2243.03 683.968 2244.63 679.66 2247.84 676.052C2251.04 672.245 2255.15 670.141 2260.16 669.74C2274.99 668.137 2289.32 667.335 2303.15 667.335C2332 667.335 2353.75 672.646 2368.38 683.267C2383.01 693.888 2390.32 708.618 2390.32 727.455C2390.32 742.686 2386.41 755.712 2378.6 766.533C2370.98 777.155 2360.46 784.569 2347.03 788.778C2346.83 788.778 2346.73 788.878 2346.73 789.078C2346.73 789.479 2346.83 789.68 2347.03 789.68C2355.65 795.491 2363.57 807.315 2370.78 825.151L2390.02 873.848C2391.62 877.656 2391.22 881.263 2388.82 884.67C2386.41 888.076 2383.21 889.78 2379.2 889.78C2373.99 889.78 2369.28 888.377 2365.07 885.571C2360.86 882.565 2357.86 878.658 2356.05 873.848L2337.11 825.151C2332.91 814.329 2328.2 807.415 2322.99 804.409C2317.98 801.203 2308.36 799.599 2294.13 799.599H2278.8C2276.99 799.599 2276.09 800.501 2276.09 802.305V873.247C2276.09 877.856 2274.49 881.764 2271.28 884.97ZM2488.98 889.78C2484.37 889.78 2480.36 888.076 2476.95 884.67C2473.55 881.263 2471.84 877.255 2471.84 872.646V687.475C2471.84 682.866 2473.55 678.858 2476.95 675.451C2480.36 672.044 2484.37 670.341 2488.98 670.341H2490.78C2495.39 670.341 2499.4 672.044 2502.81 675.451C2506.21 678.858 2507.92 682.866 2507.92 687.475V872.646C2507.92 877.255 2506.21 881.263 2502.81 884.67C2499.4 888.076 2495.39 889.78 2490.78 889.78H2488.98ZM2657.92 792.084C2635.07 784.269 2618.54 774.95 2608.32 764.129C2598.3 753.106 2593.29 739.88 2593.29 724.449C2593.29 706.814 2598.9 692.886 2610.12 682.666C2621.34 672.445 2636.77 667.335 2656.41 667.335C2674.85 667.335 2691.08 669.539 2705.11 673.948C2709.32 675.351 2712.73 678.056 2715.33 682.064C2718.14 685.872 2719.54 690.181 2719.54 694.99C2719.54 698.397 2718.04 701.002 2715.03 702.806C2712.02 704.61 2708.92 704.81 2705.71 703.407C2690.48 696.994 2675.05 693.788 2659.42 693.788C2648.6 693.788 2640.28 696.493 2634.47 701.904C2628.66 707.315 2625.75 714.83 2625.75 724.449C2625.75 732.265 2628.46 739.379 2633.87 745.792C2639.28 752.004 2647.3 756.914 2657.92 760.521C2684.37 769.339 2702.71 779.159 2712.93 789.98C2723.35 800.802 2728.56 814.529 2728.56 831.163C2728.56 851.403 2722.35 866.734 2709.92 877.155C2697.5 887.575 2679.16 892.786 2654.91 892.786C2639.08 892.786 2624.75 890.381 2611.92 885.571C2602.51 881.764 2597.8 874.349 2597.8 863.327C2597.8 859.92 2599.3 857.415 2602.31 855.812C2605.31 854.209 2608.32 854.209 2611.32 855.812C2623.75 862.425 2637.28 865.732 2651.9 865.732C2680.96 865.732 2695.49 854.209 2695.49 831.163C2695.49 822.345 2692.59 814.83 2686.77 808.618C2681.16 802.405 2671.54 796.894 2657.92 792.084ZM2823.69 889.78C2819.08 889.78 2815.07 888.076 2811.66 884.67C2808.26 881.263 2806.55 877.255 2806.55 872.646V687.475C2806.55 682.866 2808.26 678.858 2811.66 675.451C2815.07 672.044 2819.08 670.341 2823.69 670.341H2925.29C2929.1 670.341 2932.31 671.644 2934.91 674.249C2937.52 676.854 2938.82 680.06 2938.82 683.868C2938.82 687.676 2937.52 690.882 2934.91 693.487C2932.31 696.092 2929.1 697.395 2925.29 697.395H2842.33C2840.52 697.395 2839.62 698.197 2839.62 699.8V757.215C2839.62 759.018 2840.52 759.92 2842.33 759.92H2919.88C2923.49 759.92 2926.49 761.223 2928.9 763.828C2931.5 766.233 2932.81 769.239 2932.81 772.846C2932.81 776.453 2931.5 779.559 2928.9 782.165C2926.49 784.569 2923.49 785.772 2919.88 785.772H2842.33C2840.52 785.772 2839.62 786.674 2839.62 788.477V860.02C2839.62 861.824 2840.52 862.726 2842.33 862.726H2925.29C2929.1 862.726 2932.31 864.028 2934.91 866.634C2937.52 869.239 2938.82 872.445 2938.82 876.253C2938.82 880.06 2937.52 883.267 2934.91 885.872C2932.31 888.477 2929.1 889.78 2925.29 889.78H2823.69ZM3075.27 792.084C3052.43 784.269 3035.89 774.95 3025.67 764.129C3015.65 753.106 3010.64 739.88 3010.64 724.449C3010.64 706.814 3016.25 692.886 3027.48 682.666C3038.7 672.445 3054.13 667.335 3073.77 667.335C3092.21 667.335 3108.44 669.539 3122.47 673.948C3126.67 675.351 3130.08 678.056 3132.69 682.064C3135.49 685.872 3136.89 690.181 3136.89 694.99C3136.89 698.397 3135.39 701.002 3132.39 702.806C3129.38 704.61 3126.27 704.81 3123.07 703.407C3107.84 696.994 3092.41 693.788 3076.77 693.788C3065.95 693.788 3057.64 696.493 3051.82 701.904C3046.01 707.315 3043.11 714.83 3043.11 724.449C3043.11 732.265 3045.81 739.379 3051.22 745.792C3056.63 752.004 3064.65 756.914 3075.27 760.521C3101.72 769.339 3120.06 779.159 3130.28 789.98C3140.7 800.802 3145.91 814.529 3145.91 831.163C3145.91 851.403 3139.7 866.734 3127.28 877.155C3114.85 887.575 3096.51 892.786 3072.27 892.786C3056.43 892.786 3042.1 890.381 3029.28 885.571C3019.86 881.764 3015.15 874.349 3015.15 863.327C3015.15 859.92 3016.65 857.415 3019.66 855.812C3022.67 854.209 3025.67 854.209 3028.68 855.812C3041.1 862.425 3054.63 865.732 3069.26 865.732C3098.32 865.732 3112.85 854.209 3112.85 831.163C3112.85 822.345 3109.94 814.83 3104.13 808.618C3098.52 802.405 3088.9 796.894 3075.27 792.084Z" fill="#2D3191"/>
<defs>
<linearGradient id="paint0_linear_40_66" x1="373.844" y1="21.042" x2="373.844" y2="978.958" gradientUnits="userSpaceOnUse">
<stop stop-color="#2D3191"/>
<stop offset="1" stop-color="#7C4098"/>
</linearGradient>
<linearGradient id="paint1_linear_40_66" x1="3043.15" y1="140.01" x2="3043.15" y2="429.66" gradientUnits="userSpaceOnUse">
<stop stop-color="#2D3191"/>
<stop offset="1" stop-color="#7C4098"/>
</linearGradient>
</defs>
</svg>
